PathFileType	4	(X/Y/Z)	 s01c0202.trc
DataRate	CameraRate	NumFrames	NumMarkers	Units	OrigDataRate	OrigDataStartFrame	OrigNumFrames
200	200	4	48	mm	200	1	2000
Frame#	Time	racr			lacr			c7			jug			rlel			rdr			llel			ldr			s2			lic			ric			lasi			rasi			rpsi			lpsi			rgt			lgt			rth1			rth2			rth3			rth4			rlfc			rsh1			rsh2			rsh3			rsh4			rlmal			rmmal			rcal			rtoe			rmt5			lth1			lth2			lth4			lth3			llfc			lsh1			lsh2			lsh3			lsh4			llmal			lmmal			lcal			ltoe			lmt5			SBIKE			LBIKE			RBIKE			
		X1	Y1	Z1	X2	Y2	Z2	X3	Y3	Z3	X4	Y4	Z4	X5	Y5	Z5	X6	Y6	Z6	X7	Y7	Z7	X8	Y8	Z8	X9	Y9	Z9	X10	Y10	Z10	X11	Y11	Z11	X12	Y12	Z12	X13	Y13	Z13	X14	Y14	Z14	X15	Y15	Z15	X16	Y16	Z16	X17	Y17	Z17	X18	Y18	Z18	X19	Y19	Z19	X20	Y20	Z20	X21	Y21	Z21	X22	Y22	Z22	X23	Y23	Z23	X24	Y24	Z24	X25	Y25	Z25	X26	Y26	Z26	X27	Y27	Z27	X28	Y28	Z28	X29	Y29	Z29	X30	Y30	Z30	X31	Y31	Z31	X32	Y32	Z32	X33	Y33	Z33	X34	Y34	Z34	X35	Y35	Z35	X36	Y36	Z36	X37	Y37	Z37	X38	Y38	Z38	X39	Y39	Z39	X40	Y40	Z40	X41	Y41	Z41	X42	Y42	Z42	X43	Y43	Z43	X44	Y44	Z44	X45	Y45	Z45	X46	Y46	Z46	X47	Y47	Z47	X48	Y48	Z48	
1	0.0050	454.476460	1355.197225	-113.344200	459.474778	1357.882684	-418.027186	408.137424	1412.350477	-257.990752	433.468124	1255.344362	-264.545455	550.158398	1104.358657	-15.418335	712.238625	895.823891	-33.033514	560.430056	1102.810485	-483.357256	705.530995	896.492847	-450.801676	-89.641403	1147.139286	-245.758551	102.611716	1157.470105	-431.140244	77.688610	1139.572577	-95.070553	80.405327	1104.124155	-396.796669	100.150740	1088.618857	-121.715528	-60.114217	1182.462536	-191.907810	-64.956375	1187.525261	-299.856036	12.540109	1019.999179	-67.014809	20.410399	1048.758825	-459.250312	83.211858	896.988286	-52.499242	130.000924	829.757471	-64.571739	175.503252	753.596281	-82.537226	175.746941	859.958465	-77.245464	208.009112	652.511152	-108.500241	147.942865	550.198277	-74.430340	127.588633	467.833418	-74.406462	97.634017	383.859196	-84.577838	175.522615	453.596531	-108.495544	53.678755	262.384754	-103.279943	NaN	NaN	NaN	11.907158	233.627030	-160.539167	276.587858	181.621345	-132.372617	165.878567	163.791089	-69.302382	122.716199	982.044106	-463.296757	211.400113	981.097311	-471.473788	214.011522	1035.107512	-461.513516	296.720354	971.822600	-462.738346	405.689731	913.370747	-444.371212	321.110392	838.048988	-461.635456	278.012440	764.013289	-449.212558	234.331496	692.599411	-429.206865	328.804394	740.053997	-422.312484	174.070082	581.621268	-404.045712	203.154367	591.067239	-322.101228	119.942754	545.798874	-361.022667	395.334043	517.959952	-371.946434	289.458987	500.142102	-436.756343	-224.896538	892.850065	-252.320722	-12.521116	84.784770	-456.033909	-21.689054	81.034917	-55.793630	
2	0.0100	454.916528	1355.387437	-113.004989	459.495440	1357.905316	-418.054310	408.173379	1412.406144	-257.988505	433.509646	1255.248542	-264.479096	550.179616	1104.355722	-15.421546	712.239023	895.847152	-33.035116	560.429467	1102.853253	-483.372698	705.532087	896.501144	-450.778237	-89.631076	1147.154461	-245.762325	102.634110	1157.546281	-431.203382	77.727940	1139.546452	-95.079498	80.428184	1104.098907	-396.787348	100.181222	1088.591249	-121.663620	-60.076344	1182.457361	-191.911468	-64.917919	1187.530809	-299.862390	12.567853	1020.004234	-67.027387	20.435434	1048.764873	-459.253769	83.239041	896.966546	-52.507120	130.021829	829.749980	-64.589313	175.535078	753.585144	-82.557572	175.769066	859.949280	-77.275301	208.022328	652.517992	-108.494473	147.955317	550.225420	-74.445516	127.599889	467.824171	-74.416343	97.635044	383.859078	-84.579028	175.538791	453.603560	-108.494937	53.689348	262.387473	-103.288076	NaN	NaN	NaN	11.930307	233.636860	-160.548629	276.593739	181.622271	-132.357357	165.870000	163.814481	-69.303920	122.752694	982.033572	-463.313580	211.410232	981.124069	-471.509355	214.055822	1035.319332	-461.904254	296.728378	971.819623	-462.761102	405.700850	913.373784	-444.382953	321.113690	838.057549	-461.651497	278.011660	764.013194	-449.217702	234.334106	692.601503	-429.218224	328.809964	740.056667	-422.298741	174.066626	581.614589	-404.050781	202.690192	591.137221	-321.644321	119.946519	545.794992	-361.027083	395.331248	517.979445	-371.951006	289.463243	500.159825	-436.750742	-224.887899	892.852161	-252.321399	-12.514123	84.763959	-456.037839	-21.694965	81.031704	-55.801300	
3	0.0150	454.578484	1355.206312	-113.387887	459.536832	1357.929325	-418.077365	408.190279	1412.443106	-258.028354	433.578327	1255.215233	-264.472524	550.194358	1104.374074	-15.409563	712.231161	895.841215	-33.039362	560.466863	1102.873519	-483.374041	705.527119	896.506930	-450.782260	-89.630068	1147.167184	-245.732491	102.647178	1157.512825	-431.242575	77.756369	1139.509131	-95.076771	80.454943	1104.065849	-396.782689	100.211976	1088.535679	-121.665189	-60.053982	1182.455588	-191.899647	-64.915244	1187.526852	-299.840961	12.587101	1019.984966	-67.024631	20.442343	1048.771120	-459.235976	83.256202	896.964864	-52.508794	130.032109	829.747208	-64.583983	175.547932	753.583134	-82.571794	175.789203	859.945661	-77.268973	208.047184	652.514276	-108.504793	147.981185	550.221820	-74.444672	127.617585	467.837181	-74.411165	97.659623	383.859034	-84.588196	175.557092	453.597966	-108.500855	53.680628	262.399253	-103.279453	NaN	NaN	NaN	11.930915	233.655559	-160.556940	276.604896	181.617931	-132.371774	165.872189	163.803528	-69.319632	122.785392	982.023981	-463.331248	211.411671	981.113008	-471.510871	214.067977	1035.321173	-461.914301	296.755695	971.814695	-462.775706	405.696723	913.378975	-444.397489	321.112688	838.046781	-461.672333	278.010329	764.014899	-449.228447	234.339684	692.597575	-429.226415	328.817436	740.055327	-422.313916	173.951349	581.682871	-404.309843	203.156133	591.044727	-322.112110	119.648545	545.727094	-361.549848	395.329569	517.973102	-371.936842	289.472316	500.162656	-436.739740	-224.890603	892.844775	-252.322756	-12.521595	84.789078	-456.023660	-21.690856	81.036924	-55.802586	
4	0.0200	454.627193	1355.248157	-113.373490	458.641649	1356.990485	-417.917462	408.254261	1411.286581	-258.425898	433.639549	1255.252347	-264.485440	550.226846	1104.384811	-15.406999	713.068370	896.043933	-33.135222	560.478322	1102.870961	-483.378089	708.884805	900.395874	-448.027674	-89.508501	1147.290621	-246.164064	102.671198	1157.520377	-431.309618	77.866919	1139.662921	-94.941910	80.461677	1104.041819	-396.797619	100.581976	1088.618160	-121.631738	-60.073670	1182.420879	-191.896911	-64.585789	1187.298343	-300.100663	12.692256	1019.845573	-66.920763	20.576187	1048.703247	-459.252755	83.386900	897.072028	-52.209933	130.051122	829.743575	-64.597011	175.663462	753.676764	-82.564177	175.802294	859.889553	-77.263348	208.071592	652.507240	-108.511836	148.078630	550.219334	-74.449170	127.639260	467.828341	-74.438454	97.665945	383.859368	-84.583675	175.572512	453.596201	-108.514178	53.563410	262.494909	-103.252992	NaN	NaN	NaN	11.941762	233.657364	-160.560133	276.592850	181.619492	-132.364039	165.880837	163.811556	-69.309070	122.815822	982.015793	-463.348698	211.418309	981.113006	-471.517960	222.591480	1034.619380	-454.270787	296.740992	971.807938	-462.779223	405.821141	913.481218	-444.252696	321.117185	838.032424	-461.674162	278.708457	762.791689	-451.603898	234.513697	692.643686	-429.227741	329.324241	739.429453	-423.283320	173.844140	581.756769	-404.505130	200.284586	590.779998	-319.517272	119.481790	545.717329	-361.815358	395.332201	517.958552	-371.932889	289.463941	500.165575	-436.748502	-225.074955	892.936591	-252.721219	-12.526803	84.780687	-456.026016	-21.701038	81.047109	-55.804488	
